<?xml version="1.0" standalone="no"?>
<!DOCTYPE svg PUBLIC "-//W3C//DTD SVG 20010904//EN"
 "http://www.w3.org/TR/2001/REC-SVG-20010904/DTD/svg10.dtd">
<svg version="1.0" xmlns="http://www.w3.org/2000/svg"
 width="100.000000pt" height="100.000000pt" viewBox="0 0 100.000000 100.000000"
 preserveAspectRatio="xMidYMid meet">
<metadata>
Created by potrace 1.14, written by Peter Selinger 2001-2017
</metadata>
<g transform="translate(0.000000,100.000000) scale(0.100000,-0.100000)"
fill="#000000" stroke="none">
<path d="M419 730 c-140 -148 -255 -277 -257 -285 -8 -36 17 -45 125 -45 95 0
104 -2 99 -17 -3 -10 -28 -94 -56 -186 -84 -274 -72 -270 251 73 178 189 254
276 254 292 0 22 -3 23 -112 26 -62 1 -113 6 -113 11 0 5 25 90 56 190 44 146
53 185 44 196 -7 8 -18 15 -25 15 -6 0 -126 -121 -266 -270z m149 -38 c-50
-164 -51 -162 73 -162 49 0 89 -3 89 -6 0 -3 -76 -86 -170 -185 -93 -98 -170
-175 -170 -172 0 3 18 65 41 139 33 107 39 137 29 149 -8 10 -38 15 -102 17
l-91 3 168 178 c92 98 169 176 171 175 2 -2 -15 -63 -38 -136z"/>
</g>
</svg>
